<svg xmlns="http://www.w3.org/2000/svg" width="32" height="32" viewBox="0 0 32 32"><path stroke="#449FDB" d="M0 0"/><path d="M16 0c8.837 0 16 7.163 16 16s-7.163 16-16 16S0 24.837 0 16 7.163 0 16 0zm0 29c7.18 0 13-5.82 13-13S23.18 3 16 3 3 8.82 3 16s5.82 13 13 13zM6.586 14.586l8-8c.78-.78 2.047-.78 2.828 0s.78 2.047 0 2.828L12.828 14H24c1.105 0 2 .895 2 2s-.895 2-2 2H12.828l4.586 4.586c.78.78.78 2.047 0 2.83-.39.39-.902.585-1.414.585s-1.024-.194-1.414-.585l-8-8c-.78-.78-.78-2.047 0-2.828z" fill="#fff"/></svg>