<svg xmlns="http://www.w3.org/2000/svg" width="32" height="32" viewBox="0 0 32 32"><path d="M12 19.108v-3.57c0-.473.21-.92.59-1.26.38-.338.88-.525 1.41-.525v-1.785c-2.2 0-4 1.606-4 3.57v2.676c0 .493-.448.892-1 .892H8v1.785h1c.552 0 1 .4 1 .893v2.677c0 1.963 1.8 3.57 4 3.57v-1.786c-.53 0-1.03-.187-1.41-.526-.38-.34-.59-.786-.59-1.26v-3.57c0-.492-.448-.89-1-.89.552 0 1-.4 1-.893zm8 1.784v3.57c0 .473-.21.92-.59 1.26-.38.338-.88.525-1.41.525v1.785c2.2 0 4-1.606 4-3.57v-2.676c0-.493.448-.892 1-.892h1V19.11h-1c-.552 0-1-.4-1-.893V15.54c0-1.963-1.8-3.57-4-3.57v1.786c.53 0 1.03.187 1.41.526.38.34.59.786.59 1.26v3.57c0 .492.448.89 1 .89-.552 0-1 .4-1 .893zm8.232-14.66l-4.465-4.464C22.795.796 20.874 0 19.5 0h-15C3.123 0 2 1.125 2 2.5v27C2 30.875 3.123 32 4.5 32h23c1.374 0 2.5-1.125 2.5-2.5v-19c0-1.375-.797-3.296-1.77-4.268zm-1.414 1.414c.098.098.195.218.29.354H22V2.892c.136.095.256.192.354.29l4.465 4.464zM28 29.5c0 .27-.23.5-.5.5h-23c-.27 0-.5-.23-.5-.5v-27c0-.27.23-.5.5-.5h15c.15 0 .32.02.5.053V10h7.947c.034.18.053.35.053.5v19z" fill="#fff"/></svg>