<svg xmlns="http://www.w3.org/2000/svg" width="32" height="32" viewBox="0 0 32 32"><path d="M15.803 1.282C7.675 1.392 1.173 8.07 1.28 16.2c.11 8.124 6.788 14.628 14.916 14.52S30.826 23.93 30.718 15.8c-.107-8.126-6.787-14.63-14.915-14.52zm1.632 4.905c1.496 0 1.938.867 1.938 1.86 0 1.24-.994 2.388-2.688 2.388-1.418 0-2.09-.714-2.05-1.89 0-.995.83-2.358 2.8-2.358zM13.598 25.2c-1.022 0-1.77-.62-1.056-3.35l1.173-4.838c.203-.776.237-1.086 0-1.086-.306 0-1.634.536-2.42 1.064l-.51-.837c2.49-2.077 5.35-3.296 6.575-3.296 1.022 0 1.192 1.21.682 3.07l-1.344 5.088c-.237.9-.134 1.21.102 1.21.306 0 1.312-.37 2.3-1.15l.58.777c-2.42 2.418-5.057 3.35-6.08 3.35z" fill="#323a45"/></svg>