<svg xmlns="http://www.w3.org/2000/svg" width="32" height="32" viewBox="0 0 32 32"><path d="M5.422 12.66l1.763 15.533c.094.738 3.656 3.163 8.814 3.166 5.157-.004 8.72-2.43 8.815-3.167l1.763-15.534c-2.694 1.506-6.722 2.22-10.58 2.22s-7.884-.714-10.577-2.22zm15.645-9.6l-1.374-1.526C19.163.78 18.587.64 17.466.64h-2.93c-1.12 0-1.697.14-2.228.894L10.935 3.06C6.823 3.776 3.84 5.682 3.84 7.087v.274c0 2.474 5.444 4.48 12.16 4.48s12.16-2.006 12.16-4.48v-.274c0-1.405-2.98-3.31-7.092-4.03zM19.31 6.62L17.307 4.48h-2.614L12.69 6.622H9.97s2.98-3.552 3.378-4.034c.304-.368.616-.51 1.02-.51h3.268c.403 0 .714.142 1.02.51.396.482 3.377 4.034 3.377 4.034H19.31z" fill="#323A45"/></svg>